# xmcd
#
# Track frame offsets: 
#        182
#        14532
#        29650
#        46782
#        61425
#        83072
#        104072
#        122200
#        139355
#        159670
#        171875
#        186497
#        201692
#
# Disc length: 2757 seconds
#
# Revision: 7
# Processed by: cddbd v1.5.2PL0 Copyright (c) Steve Scherf et al.
# Submitted via: ExactAudioCopy v1.1
#
DISCID=c90ac30d
DTITLE=Carlene Carter - Little Acts Of Treason
DYEAR=1995
DGENRE=Country
TTITLE0=Hurricane
TTITLE1=Love Like This
TTITLE2=Little Acts Of Treason
TTITLE3=He Will Be Mine
TTITLE4=Come Here You
TTITLE5=Change
TTITLE6=The Lucky Ones
TTITLE7=All Night Long
TTITLE8=You'll Be The One
TTITLE9=Loose Talk
TTITLE10=Go Wild
TTITLE11=The Winding Stream
TTITLE12=Come Here You (Reprise)
EXTD=
EXTT0=
EXTT1=
EXTT2=
EXTT3=
EXTT4=
EXTT5=
EXTT6=
EXTT7=
EXTT8=
EXTT9=
EXTT10=
EXTT11=
EXTT12=
PLAYORDER=
